<?xml version="1.0" standalone="no"?>
<!DOCTYPE svg PUBLIC "-//W3C//DTD SVG 20010904//EN"
 "http://www.w3.org/TR/2001/REC-SVG-20010904/DTD/svg10.dtd">
<svg version="1.0" xmlns="http://www.w3.org/2000/svg"
 width="16.000000pt" height="16.000000pt" viewBox="0 0 16.000000 16.000000"
 preserveAspectRatio="xMidYMid meet">

<g transform="translate(0.000000,16.000000) scale(0.100000,-0.100000)"
fill="#ffffff" stroke="none">
<path d="M31 104 c-12 -15 -21 -37 -21 -50 0 -23 3 -24 70 -24 67 0 70 1 70
24 0 67 -80 100 -119 50z m79 -18 c0 -12 -4 -16 -8 -11 -4 6 -14 10 -22 10 -8
0 -18 -4 -22 -10 -4 -5 -8 -1 -8 11 0 16 6 21 30 21 24 0 30 -5 30 -21z m5
-36 c4 -6 -10 -10 -35 -10 -25 0 -39 4 -35 10 3 6 19 10 35 10 16 0 32 -4 35
-10z"/>
</g>
</svg>
