<?xml version="1.0" standalone="no"?>
<!DOCTYPE svg PUBLIC "-//W3C//DTD SVG 20010904//EN"
 "http://www.w3.org/TR/2001/REC-SVG-20010904/DTD/svg10.dtd">
<svg version="1.0" xmlns="http://www.w3.org/2000/svg"
 width="32.000000pt" height="32.000000pt" viewBox="0 0 32.000000 32.000000"
 preserveAspectRatio="xMidYMid meet">

<g transform="translate(0.000000,32.000000) scale(0.100000,-0.100000)"
fill="#ffffff" stroke="none">
<path d="M113 255 c-63 -27 -119 -137 -94 -184 11 -20 20 -21 141 -21 121 0
130 1 141 21 25 48 -31 158 -96 185 -42 17 -51 17 -92 -1z m29 -41 c14 -14 20
-14 33 -4 22 18 42 6 47 -29 5 -35 -17 -51 -26 -19 -4 18 -7 19 -20 8 -13 -10
-19 -10 -32 0 -13 11 -16 10 -20 -8 -4 -12 -12 -18 -19 -15 -8 2 -12 10 -10
16 2 7 6 24 9 40 7 31 13 33 38 11z m81 -111 l32 -18 -48 -3 c-26 -2 -68 -2
-95 0 l-47 3 30 17 c39 22 88 22 128 1z"/>
</g>
</svg>
